# Blender v2.79 (sub 0) OBJ File: ''
# www.blender.org
mtllib House2.mtl
o Cube
v -7.000000 0.000000 -7.000000
v -7.000000 0.000000 7.000000
v -8.000000 0.000000 1.000000
v -8.000000 0.000000 -2.000000
v -7.000000 8.000000 -7.000000
v -7.000000 8.000000 7.000001
v -8.000000 3.907137 0.907137
v -8.000000 3.907137 -1.907137
v -7.000000 0.000000 -8.000000
v -7.999999 0.000000 -8.000000
v -6.999999 6.000000 -8.000000
v -8.000000 6.000000 -8.000000
v -7.000001 -0.000000 8.000000
v -8.000001 -0.000000 8.000000
v -7.000001 6.000000 8.000001
v -8.000001 6.000000 8.000000
v 7.000000 0.000001 7.000013
v 7.000000 8.000001 7.000014
v 6.999999 0.000001 8.000013
v 6.999999 6.000001 8.000014
v 7.000000 -0.000002 -6.999997
v 7.000000 7.999998 -6.999996
v 7.000000 -0.000002 -7.999997
v 7.000001 5.999998 -7.999996
v 8.000000 0.000000 -6.000000
v 8.000000 4.000000 -6.000000
v 8.000000 -0.000002 -7.999997
v 8.000001 5.999998 -7.999996
v 8.000000 0.000000 -3.000000
v 8.000000 4.000000 -3.000000
v 8.000000 -0.000003 8.000004
v 8.000000 5.999997 8.000004
v -6.000000 9.000000 -6.000000
v -6.000000 9.000000 6.000001
v 6.000000 9.000001 6.000014
v 6.000000 8.999998 -5.999996
v -8.000000 0.000000 7.000000
v -8.000000 0.000000 -7.000000
v -8.000000 6.000000 7.000000
v -8.000000 6.000000 -7.000000
v -7.000000 0.000000 7.000000
v -7.000000 6.000000 7.000000
v -7.000000 0.000000 -7.000000
v -7.000000 6.000000 -7.000000
v -7.000000 0.000000 1.000000
v -7.000000 3.907137 0.907137
v -7.000000 0.000000 -2.000000
v -7.000000 3.907137 -1.907137
v 8.000000 -0.000002 -6.999997
v 8.000000 5.999998 -6.999996
v 8.000000 -0.000003 7.000003
v 8.000000 5.999997 7.000004
v 7.000000 -0.000002 -6.999997
v 7.000000 5.999998 -6.999996
v 7.000000 -0.000003 7.000003
v 7.000000 5.999997 7.000004
v 7.000000 0.000000 -6.000000
v 7.000000 4.000000 -6.000000
v 7.000000 0.000000 -3.000000
v 7.000000 4.000000 -3.000000
vn 0.0000 -1.0000 0.0000
vn -0.8944 0.4472 -0.0000
vn 1.0000 0.0000 0.0000
vn -0.5773 0.5774 -0.5774
vn 0.0000 0.0000 -1.0000
vn -1.0000 -0.0000 -0.0000
vn 0.0000 0.4472 -0.8944
vn 0.0000 -0.0000 1.0000
vn -0.5774 0.5773 0.5773
vn -0.0000 0.4472 0.8944
vn 0.5774 0.5774 -0.5774
vn -0.8944 -0.4472 0.0000
vn 0.5774 0.5773 0.5773
vn 0.0000 1.0000 -0.0000
vn 0.0000 -0.7071 -0.7071
vn -0.0000 -0.7071 0.7071
vn 0.7071 -0.7071 0.0000
vn -0.7071 -0.7071 0.0000
vn 0.0000 0.0238 0.9997
vn 0.0000 -0.0238 0.9997
usemtl Material
s off
f 1//1 2//1 37//1 38//1
f 5//2 40//2 39//2 6//2
f 47//3 43//3 44//3 48//3
f 37//1 2//1 13//1 14//1
f 46//3 42//3 41//3 45//3
f 40//4 5//4 11//4 12//4
f 11//5 9//5 10//5 12//5
f 38//6 40//6 12//6 10//6
f 1//1 38//1 10//1 9//1
f 11//7 5//7 22//7 24//7
f 13//8 15//8 16//8 14//8
f 6//9 39//9 16//9 15//9
f 39//6 37//6 14//6 16//6
f 6//10 15//10 20//10 18//10
f 17//3 18//3 20//3 19//3
f 15//8 13//8 19//8 20//8
f 2//5 6//5 18//5 17//5
f 13//1 2//1 17//1 19//1
f 24//11 22//11 50//11 28//11
f 1//1 9//1 23//1 21//1
f 5//8 1//8 21//8 22//8
f 9//5 11//5 24//5 23//5
f 50//3 49//3 27//3 28//3
f 58//6 54//6 53//6 57//6
f 21//1 23//1 27//1 49//1
f 23//5 24//5 28//5 27//5
f 17//1 51//1 31//1 19//1
f 21//1 49//1 51//1 17//1
f 50//12 52//12 18//12 22//12
f 20//8 19//8 31//8 32//8
f 51//3 52//3 32//3 31//3
f 52//13 18//13 20//13 32//13
f 21//14 1//14 2//14 17//14
f 18//15 6//15 34//15 35//15
f 33//1 36//1 35//1 34//1
f 5//16 22//16 36//16 33//16
f 6//17 5//17 33//17 34//17
f 22//18 18//18 35//18 36//18
f 3//8 4//8 38//8 37//8
f 8//1 48//1 46//1 7//1
f 39//1 40//1 44//1 42//1
f 38//14 4//14 47//14 43//14
f 48//3 44//3 42//3 46//3
f 40//8 38//8 43//8 44//8
f 7//19 3//19 45//19 46//19
f 3//14 37//14 41//14 45//14
f 4//20 47//20 48//20 8//20
f 37//5 39//5 42//5 41//5
f 39//6 40//6 8//6 7//6
f 4//6 8//6 40//6 38//6
f 37//6 39//6 7//6 3//6
f 52//5 51//5 55//5 56//5
f 26//5 25//5 57//5 58//5
f 30//1 60//1 58//1 26//1
f 25//3 29//3 51//3 49//3
f 59//6 55//6 56//6 60//6
f 60//6 56//6 54//6 58//6
f 25//14 49//14 53//14 57//14
f 29//5 59//5 60//5 30//5
f 49//8 50//8 54//8 53//8
f 50//1 52//1 56//1 54//1
f 51//14 29//14 59//14 55//14
f 49//3 29//3 30//3 52//3 51//3
f 49//3 50//3 26//3 25//3 51//3
f 50//3 52//3 30//3 26//3
f 56//6 18//6 22//6 54//6
f 42//3 44//3 5//3 6//3
