# Blender v2.79 (sub 0) OBJ File: ''
# www.blender.org
mtllib Van.mtl
o Cube
v 1.000000 1.000000 -3.000000
v 1.000000 1.000000 4.000000
v -1.000000 1.000000 4.000000
v -1.000000 1.000000 -3.000000
v 1.000000 3.000000 -3.000000
v 0.999999 3.000000 3.000000
v -1.000000 3.000000 3.000000
v -1.000000 3.000000 -3.000000
v 0.000000 1.000000 4.000000
v 1.000000 2.000000 4.000000
v -1.000000 2.000000 4.000000
v -0.000001 3.000000 3.000000
v -0.000000 2.000000 4.000000
v 1.000000 0.000000 3.000000
v -1.000000 0.000000 3.000000
v 1.000000 0.000000 2.000000
v -1.000000 0.000000 2.000000
v 1.000000 1.000000 1.000000
v -1.000000 1.000000 1.000000
v 1.000000 0.000000 -2.000000
v -1.000000 0.000000 -2.000000
v 1.000000 0.000000 -1.000000
v -1.000000 0.000000 -1.000000
v 1.000000 1.000000 0.000000
v -1.000000 1.000000 -0.000000
v 1.000000 1.000000 -3.000000
v -1.000000 1.000000 -3.000000
v 1.000000 1.000000 4.000000
v -1.000000 1.000000 4.000000
v -0.750000 1.000000 4.000000
v -0.750000 0.000000 3.000000
v -0.750000 0.000000 2.000000
v -0.750000 1.000000 1.000000
v -0.750000 1.000000 -3.000000
v -0.750000 0.000000 -2.000000
v -0.750000 0.000000 -1.000000
v -0.750000 1.000000 -0.000000
v -0.750000 1.000000 -3.000000
v -0.750000 1.000000 4.000000
v 0.750000 1.000000 4.000000
v 0.750000 0.000000 3.000000
v 0.750000 0.000000 2.000000
v 0.750000 1.000000 1.000000
v 0.750000 1.000000 -3.000000
v 0.750000 0.000000 -2.000000
v 0.750000 0.000000 -1.000000
v 0.750000 1.000000 0.000000
v 0.750000 1.000000 -3.000000
v 0.750000 1.000000 4.000000
vn 0.0000 -1.0000 0.0000
vn 0.0000 1.0000 0.0000
vn 1.0000 0.0000 0.0000
vn -0.0000 0.7071 0.7071
vn -1.0000 -0.0000 -0.0000
vn 0.0000 0.0000 -1.0000
vn -0.0000 0.0000 1.0000
vn 0.0000 -0.7071 -0.7071
vn 0.0000 -0.7071 0.7071
usemtl Material
s off
f 1//1 2//1 9//1 3//1 4//1
f 5//2 8//2 7//2 12//2 6//2
f 1//3 5//3 6//3 10//3 2//3
f 13//4 12//4 7//4 11//4
f 3//5 11//5 7//5 8//5 4//5
f 5//6 1//6 4//6 8//6
f 9//7 13//7 11//7 3//7
f 2//7 10//7 13//7 9//7
f 10//4 6//4 12//4 13//4
f 14//3 16//3 18//3 28//3 2//3
f 20//3 1//3 26//3 24//3 22//3
f 21//5 23//5 25//5 27//5 4//5
f 15//5 3//5 29//5 19//5 17//5
f 35//3 34//3 38//3 37//3 36//3
f 31//3 32//3 33//3 39//3 30//3
f 29//1 19//1 33//1 39//1
f 19//8 33//8 32//8 17//8
f 3//7 29//7 39//7 30//7
f 21//1 35//1 36//1 23//1
f 25//1 27//1 38//1 37//1
f 17//1 32//1 31//1 15//1
f 4//8 34//8 35//8 21//8
f 23//9 36//9 37//9 25//9
f 15//9 31//9 30//9 3//9
f 27//7 4//7 34//7 38//7
f 41//5 40//5 49//5 43//5 42//5
f 45//5 46//5 47//5 48//5 44//5
f 26//1 24//1 47//1 48//1
f 14//1 41//1 42//1 16//1
f 28//7 2//7 40//7 49//7
f 20//8 45//8 44//8 1//8
f 24//9 47//9 46//9 22//9
f 1//7 26//7 48//7 44//7
f 2//9 40//9 41//9 14//9
f 18//1 28//1 49//1 43//1
f 16//8 42//8 43//8 18//8
f 22//1 46//1 45//1 20//1
